<?xml version="1.0" standalone="no"?>
<!DOCTYPE svg PUBLIC "-//W3C//DTD SVG 20010904//EN"
 "http://www.w3.org/TR/2001/REC-SVG-20010904/DTD/svg10.dtd">
<svg version="1.0" xmlns="http://www.w3.org/2000/svg"
 width="512.000000pt" height="512.000000pt" viewBox="0 0 512.000000 512.000000"
 preserveAspectRatio="xMidYMid meet">

<g transform="translate(0.000000,512.000000) scale(0.100000,-0.100000)"
fill="#ffffff" stroke="none">
<path d="M2330 5030 c-577 -60 -1085 -294 -1494 -690 -979 -946 -1010 -2509
-68 -3491 560 -585 1357 -858 2157 -740 692 102 1308 494 1699 1079 489 734
550 1681 156 2472 -127 256 -262 443 -470 650 -80 81 -190 180 -245 221 -351
262 -733 422 -1159 485 -122 18 -459 26 -576 14z m1110 -565 c52 -46 50 14 50
-1435 0 -1487 4 -1400 -62 -1440 -32 -20 -48 -20 -873 -20 -825 0 -841 0 -873
20 -66 40 -62 -47 -62 1440 0 1487 -4 1400 62 1440 33 20 44 20 884 18 836 -3
852 -3 874 -23z m-2105 -3261 c37 -17 72 -61 58 -75 -4 -4 -24 -15 -45 -23
-30 -13 -37 -13 -41 -2 -9 22 -56 29 -83 11 -22 -14 -24 -22 -24 -105 0 -99
10 -120 60 -120 57 0 83 57 28 62 -31 3 -33 6 -36 46 l-3 42 85 0 86 0 0 -72
c0 -114 -42 -163 -148 -174 -37 -4 -57 0 -91 18 -77 40 -86 61 -86 196 0 100
3 121 20 146 39 58 150 84 220 50z m392 -7 c48 -25 66 -68 61 -140 -4 -52 -9
-64 -36 -88 -18 -16 -32 -32 -32 -35 0 -3 17 -27 38 -53 73 -89 73 -81 -1 -81
l-66 0 -46 65 c-26 36 -51 65 -56 65 -5 0 -9 -29 -9 -65 l0 -65 -55 0 -55 0 0
203 c0 112 3 207 8 211 14 15 215 1 249 -17z m366 9 c18 -7 45 -28 60 -45 26
-32 27 -36 27 -158 l0 -125 -33 -33 c-77 -77 -236 -66 -288 19 -28 47 -27 237
1 284 38 62 155 91 233 58z m406 -19 c53 -35 64 -74 59 -204 -3 -92 -5 -104
-28 -129 -40 -43 -79 -54 -190 -54 l-100 0 0 211 0 212 109 -5 c98 -4 114 -7
150 -31z m221 -116 c0 -123 3 -152 16 -165 20 -21 63 -20 86 1 16 14 18 33 18
165 l0 149 53 -3 52 -3 0 -162 c0 -185 -5 -199 -86 -241 -36 -19 -54 -22 -98
-18 -60 5 -94 26 -128 76 -21 31 -23 44 -23 185 0 83 3 155 7 158 3 4 28 7 55
7 l48 0 0 -149z m496 138 c89 -23 122 -93 112 -245 -9 -130 -53 -164 -215
-164 l-103 0 0 210 0 210 81 0 c44 0 100 -5 125 -11z m454 -39 l0 -50 -90 0
-90 0 0 -35 0 -35 85 0 85 0 0 -45 0 -45 -85 0 -85 0 0 -30 0 -30 90 0 90 0 0
-50 0 -50 -145 0 -145 0 0 210 0 210 145 0 145 0 0 -50z m280 30 c55 -28 58
-39 20 -71 -30 -26 -34 -27 -56 -13 -12 9 -38 14 -56 12 -28 -2 -33 -7 -33
-28 0 -19 7 -27 30 -33 125 -37 161 -69 159 -144 -1 -37 -7 -50 -35 -78 -67
-67 -170 -70 -241 -6 l-32 28 34 30 33 29 36 -18 c43 -22 74 -23 91 -3 20 24
5 41 -46 54 -68 17 -102 38 -124 74 -55 89 14 186 133 187 28 0 64 -8 87 -20z"/>
<path d="M1880 4354 c-46 -20 -77 -50 -103 -99 l-22 -40 2 -953 c3 -910 4
-956 22 -997 10 -23 36 -55 57 -71 l37 -29 674 -3 c660 -2 674 -2 713 18 22
11 52 39 67 62 l28 42 3 960 c3 1067 6 1014 -63 1075 -19 16 -51 35 -72 40
-25 7 -260 11 -673 11 -545 -1 -640 -3 -670 -16z m89 -333 c55 -11 108 -24
118 -29 12 -7 34 -62 67 -165 l50 -156 60 -5 c34 -3 171 -8 306 -11 458 -9
603 -16 628 -31 17 -11 22 -24 22 -57 0 -24 -4 -47 -9 -53 -5 -5 -19 -110 -31
-234 -12 -124 -26 -233 -32 -242 -5 -10 -19 -19 -31 -19 -12 -1 -33 -3 -47 -4
-14 -1 -106 -10 -205 -19 -99 -10 -193 -19 -210 -21 -16 -2 -73 -7 -126 -11
l-96 -7 -82 -80 c-63 -62 -81 -86 -81 -108 0 -15 4 -31 10 -34 5 -3 195 -6
422 -6 227 1 427 -3 443 -7 23 -6 31 -15 33 -36 5 -37 -14 -56 -54 -56 l-34 0
16 -25 c20 -31 14 -97 -12 -126 -25 -28 -89 -26 -109 4 -24 38 -29 81 -11 116
l17 31 -330 0 -330 0 20 -35 c24 -40 21 -67 -12 -108 -15 -21 -29 -27 -57 -27
-31 0 -41 6 -59 33 -35 51 -27 100 21 139 11 10 16 18 9 18 -24 0 -63 73 -63
117 0 62 14 89 86 163 l66 68 -136 414 c-75 227 -141 430 -148 451 -14 47 -23
52 -121 67 -82 14 -127 38 -127 70 0 19 24 39 47 40 7 0 57 -9 112 -19z"/>
<path d="M2240 3582 c0 -17 42 -137 53 -150 5 -7 24 -12 41 -10 l31 3 0 80 0
80 -62 3 c-35 2 -63 -1 -63 -6z"/>
<path d="M2392 3508 l3 -83 65 0 65 0 0 80 0 80 -68 3 -68 3 3 -83z"/>
<path d="M2558 3583 c-2 -5 -2 -43 0 -86 l4 -78 61 3 62 3 3 76 3 76 -32 7
c-43 8 -97 8 -101 -1z"/>
<path d="M2712 3503 l3 -78 65 0 65 0 0 75 0 75 -68 3 -68 3 3 -78z"/>
<path d="M2879 3565 c-3 -29 0 -127 4 -132 3 -3 32 -6 64 -6 l58 -1 3 72 3 72
-66 0 c-36 0 -65 -2 -66 -5z"/>
<path d="M3042 3498 l3 -73 39 -3 c21 -2 42 0 47 5 4 4 11 38 15 76 l7 67 -57
0 -57 0 3 -72z"/>
<path d="M2300 3388 c0 -17 51 -142 57 -140 4 1 8 32 8 70 l0 67 -32 3 c-18 2
-33 2 -33 0z"/>
<path d="M2390 3315 l0 -76 68 3 67 3 3 73 3 72 -71 0 -70 0 0 -75z"/>
<path d="M2554 3376 c-3 -8 -4 -40 -2 -72 l3 -59 68 -3 67 -3 0 76 0 75 -65 0
c-47 0 -67 -4 -71 -14z"/>
<path d="M2712 3318 l3 -73 65 0 65 0 3 73 3 72 -71 0 -71 0 3 -72z"/>
<path d="M2879 3385 c0 -3 0 -32 0 -65 0 -33 0 -64 0 -70 1 -6 30 -10 66 -10
l65 0 0 75 0 75 -65 0 c-36 0 -65 -2 -66 -5z"/>
<path d="M3040 3315 l0 -75 34 0 c19 0 37 4 41 10 3 5 8 39 12 75 l6 65 -47 0
-46 0 0 -75z"/>
<path d="M2391 3163 c0 -26 6 -64 12 -83 12 -34 13 -35 62 -32 28 2 54 7 58
11 4 5 7 39 5 77 l-3 69 -67 3 -68 3 1 -48z"/>
<path d="M2557 3203 c-4 -3 -7 -37 -7 -75 l0 -68 39 0 c21 0 53 3 70 6 l31 7
0 68 0 69 -63 0 c-35 0 -67 -3 -70 -7z"/>
<path d="M2710 3145 c0 -44 4 -67 13 -70 6 -2 37 -1 67 3 l55 7 3 63 3 62 -71
0 -70 0 0 -65z"/>
<path d="M2879 3205 c0 -3 -1 -29 -1 -57 -1 -60 8 -65 89 -53 l43 6 0 55 0 54
-65 0 c-36 0 -65 -2 -66 -5z"/>
<path d="M3040 3157 c0 -51 1 -54 25 -54 32 0 42 13 47 62 3 40 3 40 -34 43
l-38 3 0 -54z"/>
<path d="M2258 2599 c-24 -14 -24 -71 0 -92 24 -22 35 -21 55 1 22 24 21 65
-1 85 -21 19 -30 20 -54 6z"/>
<path d="M3007 2589 c-11 -15 -13 -29 -6 -52 5 -18 9 -32 9 -33 0 -1 9 -4 19
-7 50 -13 82 61 43 96 -25 23 -48 21 -65 -4z"/>
<path d="M2319 1965 c-55 -30 -78 -114 -43 -163 33 -47 58 -52 284 -52 233 0
257 5 285 60 30 57 10 127 -45 155 -41 21 -442 21 -481 0z"/>
<path d="M1580 1070 l0 -50 38 0 c41 0 72 23 72 53 0 23 -39 47 -77 47 -33 0
-33 0 -33 -50z"/>
<path d="M1956 1098 c-11 -15 -16 -46 -16 -95 0 -60 4 -77 20 -93 24 -24 67
-26 98 -4 20 14 22 24 22 99 0 98 -11 115 -70 115 -29 0 -43 -6 -54 -22z"/>
<path d="M2350 1010 l0 -110 38 0 c55 0 62 12 62 112 0 86 -1 89 -26 98 -14 6
-36 10 -50 10 -24 0 -24 0 -24 -110z"/>
<path d="M3117 1113 c-4 -3 -7 -53 -7 -110 l0 -103 43 0 c24 0 48 5 55 12 7 7
12 44 12 94 0 74 -2 84 -22 98 -23 16 -69 21 -81 9z"/>
</g>
</svg>
